<svg id="Layer_1" data-name="Layer 1" xmlns="http://www.w3.org/2000/svg" viewBox="0 0 106.37 106.38"><defs><style>.cls-1{fill:#a27ffb;}</style></defs><title>TechClip</title><path class="cls-1" d="M210.8,146.47c0,13-.16,26,.09,39,.08,4.62-2.83,7.28-5.42,10.07-3.2,3.45-7.53,4-12.23,3.94q-37.31-.3-74.61,0c-4.59,0-7.32-2.74-10.1-5.36-3.44-3.23-4-7.53-4-12.23.23-16.75.08-33.5.1-50.25,0-5.14,3.27-8.4,8.26-8.37,4.64,0,7.89,3.42,7.89,8.36q0,21.55,0,43.12c0,6,2.39,8.5,8.31,8.5q28.68,0,57.36,0c5.69,0,8.16-2.53,8.16-8.27q0-28.68,0-57.37c0-5.67-2.51-8.16-8.25-8.17q-13.87,0-27.75,0c-5.22,0-7.81,2.64-7.83,7.85q0,14.06,0,28.12c0,4.78,2.89,7.93,7.09,7.84,4-.09,6.72-3.17,6.74-7.81,0-4.87,0-9.75,0-14.62.06-4.38,3.66-7.59,8.32-7.55a7.75,7.75,0,0,1,7.81,7.69c0,8.25-.2,16.5.07,24.74.14,4.48-2.74,7.13-5.27,9.77a13.64,13.64,0,0,1-11.82,4.05,61.55,61.55,0,0,0-12.73,0c-8.1.85-12-4.63-15.95-10a4.64,4.64,0,0,1-.38-2.54c0-17-.26-34,.21-51,.08-3,2.64-6.28,4.87-8.69,3-3.26,7.11-4.21,11.79-4.11,15.12.31,30.25.25,45.37.06,4.59-.06,7.26,2.84,10,5.45,3.44,3.23,4,7.53,3.92,12.24-.29,11.87-.1,23.75-.1,35.62Z" transform="translate(-104.57 -93.09)"/></svg>