<svg id="Layer_1" data-name="Layer 1" xmlns="http://www.w3.org/2000/svg" viewBox="0 0 24.92 14.61"><defs><style>.cls-1{fill:#eb72c8;}.cls-2{fill:#eb73c8;}.cls-3{fill:#ed7ecd;}.cls-4{fill:#ec79cb;}</style></defs><title>TechCode</title><path class="cls-1" d="M953.28,543.9c-.38,1.53-1.39,1.67-2.39.66-1.83-1.86-3.51-3.86-5.21-5.84-.73-.84-.29-1.62.34-2.31,1.5-1.65,3-3.32,4.54-4.94.59-.61,1.32-1.33,2.23-.51s.57,1.57,0,2.32a10.38,10.38,0,0,1-1.51,1.66c-2.4,2-2.2,3.86.08,5.83C952.26,541.55,953.3,542.39,953.28,543.9Z" transform="translate(-945.3 -530.59)"/><path class="cls-2" d="M963.46,545.15c-1.23-.24-1.53-1.12-1.12-2a8.5,8.5,0,0,1,2-2.63c2.23-1.94,2.08-3.71-.07-5.56a11.9,11.9,0,0,1-1.72-2,1.5,1.5,0,0,1,.08-2c.7-.72,1.45-.37,2,.17,1.73,1.78,3.4,3.62,5.06,5.47a1.41,1.41,0,0,1,.2,2c-1.8,2.05-3.63,4.09-5.47,6.1C964.17,545,963.74,545,963.46,545.15Z" transform="translate(-945.3 -530.59)"/><path class="cls-3" d="M955.44,536.3a1.31,1.31,0,0,1,1.49,1.3,1.33,1.33,0,0,1-1.56,1.59,1.29,1.29,0,0,1-1.32-1.47A1.31,1.31,0,0,1,955.44,536.3Z" transform="translate(-945.3 -530.59)"/><path class="cls-4" d="M961.35,537.6a1.34,1.34,0,0,1-1.28,1.47,1.24,1.24,0,0,1-1.35-1,1.27,1.27,0,0,1,1-1.65C960.58,536.24,961.11,536.78,961.35,537.6Z" transform="translate(-945.3 -530.59)"/></svg>