<svg id="Layer_1" data-name="Layer 1" xmlns="http://www.w3.org/2000/svg" viewBox="0 0 18.04 21.04"><defs><style>.cls-1{fill:#3395ec;}</style></defs><title>TechPaper</title><path class="cls-1" d="M30.8,18.2a2.63,2.63,0,0,0-.62-2.07l-5-5a2.6,2.6,0,0,0-2.05-.7c-2.36,0-4.73-.05-7.1,0a3,3,0,0,0-3.21,3.27q-.09,7.11,0,14.21c0,2.3,1.13,3.41,3.37,3.49,1.87.07,3.74,0,5.61,0s3.74.06,5.61,0c2.24-.08,3.33-1.18,3.38-3.48C30.84,24.68,30.78,21.44,30.8,18.2Zm-7.1-4.47c1.3,1.5,2.25,2.58,3.15,3.61C23.68,18.42,23.16,18,23.7,13.73Zm4.09,12.81a1.68,1.68,0,0,1-1.85,1.86c-2.75,0-5.49,0-8.24,0a1.68,1.68,0,0,1-1.9-1.81c0-3.74,0-7.49,0-11.23,0-1.41.77-2,2.14-2,.62,0,1.24,0,2.35,0,0,1.56,0,2.79,0,4,.1,2.3,1.14,3.36,3.39,3.49.62,0,1.25,0,1.87,0h2.23C27.79,22.89,27.8,24.72,27.79,26.54Z" transform="translate(-12.77 -10.39)"/></svg>