<svg id="Layer_1" data-name="Layer 1" xmlns="http://www.w3.org/2000/svg" viewBox="0 0 148.34 139.48"><defs><style>.cls-1{fill:#fa9f20;}</style></defs><title>TechImg</title><path class="cls-1" d="M1158.73,629.76c-15.82,0-31.64.14-47.46,0-15.33-.16-23.8-7.78-23.89-21.92q-.29-48.34,0-96.7c.09-12.24,9.22-20.52,22.61-20.6q51.42-.31,102.83,0c13.35.08,22.47,8.39,22.55,20.65q.36,49.59,0,99.18c-.08,10.7-9.62,19.21-21.28,19.37C1195.65,629.94,1177.19,629.76,1158.73,629.76Zm4-119.43c-13.15,0-26.3-.23-39.43.08-9.75.24-14.53,4.22-14.73,12.6-.36,15.64-.15,31.3,0,47,0,1.42,1.12,2.83,1.71,4.25a17.16,17.16,0,0,0,3.69-1.92c8.19-7.34,15.48-19.58,24.63-20.95,11.84-1.78,17.47,13.78,27.24,20.13,3.19,2.07,9.38,4.54,11.26,3.2,11.83-8.48,21.83-3.07,31.59,2.76,4.53,2.71,5.6,1.92,5.61-2.46,0-16.48.23-33,0-49.44-.2-11.71-4-14.89-17.33-15.16C1185.53,510.15,1174.13,510.33,1162.75,510.33Zm-1.14,99.53c14,0,28.05.14,42.06-.17,1.81,0,5-2.28,5.11-3.7.77-8.07-13.16-16.88-20.9-13.57-18.1,7.74-18.11,7.75-31-4.22-4.36-4.05-8.44-8.43-13.16-12.07-1.45-1.11-5.56-1.25-6.83-.16a255.85,255.85,0,0,0-22.3,20.94c-4.4,4.82.59,12.83,7.57,12.91C1135.32,610,1148.47,609.86,1161.61,609.86Z" transform="translate(-1087.23 -490.34)"/><path class="cls-1" d="M1187.64,520.29c11.16-.08,15.75,3.94,16.09,14.1.39,12.08-4.06,16.22-17,15.75-10.61-.38-14.94-4.88-14.77-15.34C1172.15,524.54,1176.66,520.36,1187.64,520.29Z" transform="translate(-1087.23 -490.34)"/></svg>