<svg id="Layer_1" data-name="Layer 1" xmlns="http://www.w3.org/2000/svg" viewBox="0 0 21.07 21.06"><defs><style>.cls-1{fill:#1bbeb3;}</style></defs><title>TechSpreadsheet</title><path class="cls-1" d="M34,18.24c-.05-2.24-1-3.35-3.13-3.4q-7.27-.18-14.57,0c-2.16.05-3.18,1.1-3.22,3.3q-.16,7.1,0,14.2c0,2.36,1.09,3.32,3.49,3.42s4.74,0,7.1,0,4.49.07,6.73,0c2.61-.11,3.57-1,3.62-3.7C34.08,27.46,34.08,22.84,34,18.24Zm-9.52-.39a49.72,49.72,0,0,1,5.18,0c1,.07,1.38.9,1.34,1.87s-.85,1-1.59,1-1.48,0-2.22,0v0c-.86,0-1.73,0-2.59,0s-1.06-.5-1.05-1.21S23.44,17.9,24.47,17.85ZM18.63,32.79C17.39,32.76,16,33,16,31c0-1.63,1.25-1.15,2.13-1.27,1,.09,2.34-.36,2.36,1.48C20.55,32.71,19.71,32.82,18.63,32.79ZM16,25.16c.09-1.82,1.39-1.3,2.38-1.37s2.22-.11,2.13,1.61-1.4,1.25-2.19,1.37C17,26.82,15.93,26.88,16,25.16Zm2.17-4.37c-.83-.14-2.08.4-2.15-1.21-.07-1.89,1.25-1.8,2.53-1.81,1.05,0,1.95,0,2,1.49C20.55,21.07,19.31,20.74,18.19,20.79Zm11.15,12c-1.48,0-3,0-4.44,0-.89,0-1.35-.36-1.37-1.3s.15-1.72,1.36-1.68c.87,0,1.73,0,2.6,0h0c.61,0,1.23,0,1.85,0s1.55-.09,1.64,1S30.57,32.7,29.34,32.75Zm.71-6c-1,.08-2,0-2.94,0s-1.72,0-2.58,0-1-.56-1-1.24-.08-1.6.95-1.64c1.84-.08,3.68-.05,5.51,0,.78,0,1,.56,1,1.24S31.07,26.64,30.05,26.72Z" transform="translate(-12.99 -14.75)"/></svg>