<?xml version="1.0" encoding="utf-8"?>
<!-- Generator: Adobe Illustrator 25.0.0, SVG Export Plug-In . SVG Version: 6.00 Build 0)  -->
<svg version="1.1" id="Layer_1" xmlns="http://www.w3.org/2000/svg" xmlns:xlink="http://www.w3.org/1999/xlink" x="0px" y="0px"
	 viewBox="0 0 307.9 280.8" style="enable-background:new 0 0 307.9 280.8;" xml:space="preserve">
<style type="text/css">
	.st0{fill:#DBC04A;}
</style>
<g>
	<path class="st0" d="M89.2,16.6c-3.1,5.9-6.2,11.3-8.7,17.1c-17.8,42.1-15.3,83,6.9,122.9c0.2,0.3,0.4,0.6,0.5,0.9
		c0.6,1.9,3.2,4,0.7,5.7c-2.2,1.5-3.3-1.5-4.6-2.7c-4.1-3.7-9.2-2.5-11.4,2.8c-0.7,1.7,0.4,2.5,1.3,3.4c3.6,3.7,7.4,7.2,10.9,11
		c2.3,2.5,4,2,6.2-0.2c6.1-6.4,12.5-12.5,18.6-18.9c2.2-2.3,3.9-3.1,6.6-0.4c4.6,4.6,5.3,6,2.4,9c-5.9,6.1-11.9,12.1-18,18
		c-2.5,2.5-3.6,4.5-0.5,7.4c3.8,3.5,5,3.8,8.3,0.7c5.9-5.7,11.7-11.4,17.4-17.2c2.4-2.5,4.4-4.4,7.7-0.8c4.4,4.8,4.9,6,1.1,9.9
		c-5.7,5.8-11.4,11.7-17.4,17.2c-2.9,2.7-3.2,4.5-0.1,7.2c3.6,3.2,6.9,6.8,10.2,10.3c3.4,3.6,5.1,0.3,7.3-1.6
		c2.2-1.9,3.9-3.8,0.7-6.4c-1.3-1-2.3-2.4-3.4-3.6c-0.8-0.8-1.8-1.7-0.7-3c0.9-1,2.1-1,3.2-0.4c2.8,1.4,5.7,2.8,8.5,4.3
		c44,22.7,87.7,21.1,131.1-1.9c0.9-0.5,1.8-1,2.7-1.4c0.3-0.1,0.6-0.2,1-0.2c1.3,1.1,0.3,2.1-0.3,3c-24,34.3-56.8,54-98.4,58.9
		c-34.3,4-65.8-4.1-94.2-23.8c-5.4-3.7-5.3-3.8-0.8-8.3c2.9-2.9,6-5.8,8.8-8.9c2.2-2.4,3.9-2.5,6.1-0.1c3.5,3.8,7.3,7.3,10.9,11
		c2.2,2.3,4,2.7,6.1,0.1c0.8-1,1.8-1.9,2.8-2.8c1.9-1.7,1.8-3.3,0-5.1c-6.6-6.6-13.3-13.1-19.8-19.8c-2.6-2.6-4.3-1.2-6.2,0.8
		c-11.3,11.4-22.6,22.7-33.9,34c-4.8,4.8-4.9,4.8-8.2,1.5c-4.7-4.7-4.7-6.1-0.2-10.6c10.9-11,21.9-21.9,32.9-32.8
		c4.2-4.2,4.2-4.2,0.1-8.3c-6-6-12.1-12-18-18c-2-2-3.7-2.8-5.7-0.3c-1.9,2.4-6.1,4.2-2.7,8.2c3.3,3.7,6.8,7.3,10.6,10.6
		c3.2,2.8,2.6,4.7-0.2,7.2c-3.1,2.7-6.1,5.7-8.8,8.8c-2.7,3.3-4.5,2.7-6.9-0.4c-9.8-12.9-16.7-27.3-21-42.8
		C15,111.7,37.9,49.5,86,17.2C86.7,16.7,87.3,16.1,89.2,16.6z"/>
	<path class="st0" d="M80.9,88.2c0.3-12.9,1.8-25.2,5.4-37.3c1.2-3.8,3.2-6.8,6.4-9.2C131.3,12.9,172.4,9.2,215.9,29
		c5.1,2.3,5.1,2.8,1,6.9C179,73.8,141,111.7,103.1,149.5c-3.8,3.8-4.2,3.7-6.7-0.9C86.1,129.7,81.1,109.4,80.9,88.2z"/>
	<path class="st0" d="M207.3,213.1c-22.2,0.1-42.6-5.4-61.8-15.6c-4.2-2.2-4.3-2.5-0.8-5.9c38.4-38.2,76.8-76.3,115.2-114.6
		c2.8-2.8,4.1-2.3,5.7,1c17.1,36.4,17.4,72.4-2.4,107.8c-11.7,21-13.2,21.5-37,25.8C219.8,212.6,213.4,213.3,207.3,213.1z"/>
	<path class="st0" d="M164.3,139.2c2.6,1.6,4.7,3.7,6.3,6.2c1.2,1.9,0.2,3.6-1.2,4.9c-6.8,6.8-13.7,13.6-20.6,20.3
		c-0.4,0.4-1.2,1.1-1.6,1c-3.1-0.8-4.6-3.6-6.5-5.8c-1.2-1.4-0.9-3.2,0.5-4.5c7-7,14.1-14.1,21.2-21
		C162.9,139.8,163.6,139.6,164.3,139.2z"/>
	<path class="st0" d="M163.7,121.9c-0.2-0.1-0.4-0.1-0.5-0.2c-7.8-8.7-9.1-7.2,0-16.2c4.8-4.8,9.7-9.5,14.4-14.5
		c2.3-2.4,4.4-2.8,6.6-0.1c2,2.4,5.9,4.6,2.4,8.2C179.2,107,171.4,114.4,163.7,121.9z"/>
	<path class="st0" d="M154.2,129.8c-0.1,2.2-1.4,3.3-2.6,4.5c-6.1,6.1-12.3,12.1-18.2,18.4c-2.7,2.9-4.4,2.3-6.8-0.2
		c-2.4-2.5-5.3-4.6-2-8.2c3.8-4.1,7.9-8,11.9-12.1c2.3-2.4,4.6-4.7,7-7c1.4-1.3,2.7-3.6,4.9-2.1C151,124.8,153.6,126.8,154.2,129.8z
		"/>
	<path class="st0" d="M181.1,139.5c-1.6-2-2.5-3.2-3.5-4.3c-4.7-5.4-4.6-5.4,0.3-10.2c5.7-5.6,11.4-11.2,16.9-16.8
		c2.1-2.2,4.1-2.9,6.2-0.3c2,2.5,6.4,4.6,2.6,8.6C196.5,124.1,188.9,131.6,181.1,139.5z"/>
	<path class="st0" d="M248.6,70.2c-2.6-1.1-4.5-3.3-6.1-5.8c-1.2-1.9-0.2-3.8,1.3-5.4c6.6-6.6,13.2-13.2,19.7-19.8
		c1.6-1.6,2.9-1.9,4.5,0c1.1,1.3,2.3,2.4,3.5,3.6c2.3,2.2,2.1,4.2-0.1,6.4c-6.5,6.4-13,12.9-19.5,19.4
		C251,69.3,250.3,70.2,248.6,70.2z"/>
	<path class="st0" d="M222.4,62.4c-0.1,1.5-1.2,2.3-2.1,3.2c-6.4,6.5-12.9,13-19.3,19.5c-1.8,1.9-3.6,3.2-5.7,0.6
		c-2.1-2.5-6.6-4.7-3.2-8.6c6.6-7.4,13.9-14.3,20.9-21.3c0.4-0.4,1.2-0.7,1.8-0.8C216.2,55,222.4,61,222.4,62.4z"/>
	<path class="st0" d="M256,28.7c-0.2,2-1.6,3.1-2.7,4.3c-6,6-12,12-18,18.1c-2,2-3.5,3.3-6.1,0.6c-4.5-4.5-5.3-6.2-2.6-9.1
		c6.4-6.8,13.1-13.3,19.7-19.9c1.7-1.8,3.4-2,5.1-0.1C253,24.6,255.6,25.9,256,28.7z"/>
	<path class="st0" d="M239.1,78.9c-0.1,2.4-1.4,3.6-2.5,4.8c-6.1,6.1-12.3,12.1-18.2,18.4c-2.7,2.9-4.5,2.2-6.9-0.2
		c-2.4-2.5-5.2-4.8-1.9-8.3c3.9-4.1,7.9-8,11.9-12.1c2.2-2.2,4.4-4.5,6.7-6.7c1.4-1.3,2.6-3.8,4.9-2.3
		C235.6,74.2,237.9,76.4,239.1,78.9z"/>
	<path class="st0" d="M274.5,13.1c1.9,0.1,7.7,5.6,7.7,7.2c-0.1,2-5.8,7.1-7.7,7c-2.1-0.2-7.7-5.4-7.7-7.2
		C266.7,18.3,272.5,13,274.5,13.1z"/>
	<path class="st0" d="M130.3,224.2c1.6,0,7.1,5.4,7.1,7s-5.5,7.2-7,7.2c-1.8,0-7.2-5.4-7.1-7C123.5,229.7,128.8,224.2,130.3,224.2z"
		/>
	<path class="st0" d="M71.3,164c-2,1.8-3.8,3.1-5.2,4.6c-2.4,2.5-4.5,2.7-7.1,0c-4.2-4.4-3.4-8.6,2.4-11c1.4-0.6,2.6-0.2,3.6,0.8
		C67,160.1,68.9,161.9,71.3,164z"/>
</g>
</svg>
